# xmcd
#
# Track frame offsets:
#	150
#	14747
#	24397
#	40817
#	54995
#	64122
#	76257
#	88332
#	101135
#	111515
#	123380
#	134047
#	149755
#	161450
#	175730
#	188912
#	201365
#	213472
#	225905
#	237310
#
# Disc length: 3291 seconds
#
# Revision: 0
# Processed by: cddbd v1.4PL0 Copyright (c) Steve Scherf et al.
# Submitted via: audiograbber 1.80.04
#
DISCID=250cd914
DTITLE=Various Artist - The Best Of Country
DYEAR=1900
DGENRE=Pop
TTITLE0=Jeannie C. Riley - Harper Valley P.T.A.
TTITLE1=Ned Miller - From  A Jack To A King
TTITLE2=Jimmy Davis - You Are My Sunshine
TTITLE3=Rita Remington - Angel Of The Morning
TTITLE4=Webb Pierce - Honky Tonk Song
TTITLE5=Johnny Cash - I Walk The Line
TTITLE6=Jerry Lee Lewis - Born to Lose
TTITLE7=Faron Young - It's Four In The Morning
TTITLE8=Freddie Fender - Before The Next Teardrop Falls
TTITLE9=Skeeter Davis - The End Of The World
TTITLE10=Hank Locklin - Please Help Me, I'm Falling
TTITLE11=Rod Hart - C B Savage
TTITLE12=David Allan Coe - Got You On My MInd
TTITLE13=George Jones - A Good Year For The Roses
TTITLE14=Wanda Jackson - I Fall To Pieces
TTITLE15=Leroy Van Dyke - The Auctioneer
TTITLE16=Jimmy C. Newman - Jambalaya (On The Bayou)
TTITLE17=Randy Travis - Dreamin'
TTITLE18=Willie Nelson - Night Life
TTITLE19=Dave Dudley - Six Days On The Road
EXTD=
EXTT0=
EXTT1=
EXTT2=
EXTT3=
EXTT4=
EXTT5=
EXTT6=
EXTT7=
EXTT8=
EXTT9=
EXTT10=
EXTT11=
EXTT12=
EXTT13=
EXTT14=
EXTT15=
EXTT16=
EXTT17=
EXTT18=
EXTT19=
PLAYORDER=
